#tb 0: 1/25
#media_type 0: video
#codec_id 0: rawvideo
#dimensions 0: 1920x1080
#sar 0: 0/1
0,          0,          0,        1,  8294400, 0xf50992f3
0,          1,          1,        1,  8294400, 0xd34cdf98
0,          2,          2,        1,  8294400, 0x76bced00
0,          3,          3,        1,  8294400, 0xf9ffd9b1
0,          4,          4,        1,  8294400, 0x303231aa
0,          5,          5,        1,  8294400, 0x0ca57c6a
0,          6,          6,        1,  8294400, 0xaa056bd5
0,          7,          7,        1,  8294400, 0x785c9a12
0,          8,          8,        1,  8294400, 0xe535750e
0,          9,          9,        1,  8294400, 0x78fd76bb
